<?xml version="1.0" standalone="no"?>
<!DOCTYPE svg PUBLIC "-//W3C//DTD SVG 20010904//EN"
 "http://www.w3.org/TR/2001/REC-SVG-20010904/DTD/svg10.dtd">
<svg version="1.0" xmlns="http://www.w3.org/2000/svg"
 width="150.000000pt" height="150.000000pt" viewBox="0 0 150.000000 150.000000"
 preserveAspectRatio="xMidYMid meet">
<metadata>
Created by potrace 1.10, written by Peter Selinger 2001-2011
</metadata>
<g transform="translate(0.000000,150.000000) scale(0.100000,-0.100000)"
fill="#ffffff" stroke="none">
<path d="M174 1309 c-2 -4 -5 -169 -6 -368 -3 -329 -2 -361 13 -361 9 0 23 10
32 23 8 12 42 51 76 87 46 47 61 70 57 85 -7 29 -10 355 -3 362 7 7 332 4 362
-3 14 -3 37 12 80 52 33 31 75 68 93 82 18 14 31 29 29 35 -3 11 -726 17 -733
6z"/>
<path d="M1185 1311 l-100 -4 -110 -116 c-60 -64 -266 -269 -456 -456 l-346
-340 -1 -112 -2 -113 108 0 107 0 462 462 462 461 2 105 c2 83 0 105 -12 111
-8 3 -59 4 -114 2z m25 -111 c15 -15 19 -27 14 -48 -8 -31 -66 -108 -110 -145
-16 -14 -119 -116 -229 -227 -258 -261 -464 -464 -495 -488 -42 -31 -88 -46
-104 -33 -19 16 -27 66 -15 98 15 39 830 850 860 856 47 9 59 7 79 -13z"/>
<path d="M1212 819 c-82 -90 -84 -92 -78 -133 8 -59 10 -335 2 -343 -7 -8
-305 -5 -351 3 -27 5 -38 -2 -90 -51 -32 -31 -74 -68 -92 -82 -19 -14 -32 -30
-30 -36 3 -9 725 -13 734 -4 8 8 5 731 -3 734 -5 1 -47 -38 -92 -88z"/>
</g>
</svg>
