<?xml version="1.0" standalone="no"?>
<!DOCTYPE svg PUBLIC "-//W3C//DTD SVG 20010904//EN"
 "http://www.w3.org/TR/2001/REC-SVG-20010904/DTD/svg10.dtd">
<svg version="1.0" xmlns="http://www.w3.org/2000/svg"
 width="150.000000pt" height="150.000000pt" viewBox="0 0 150.000000 150.000000"
 preserveAspectRatio="xMidYMid meet">
<metadata>
Created by potrace 1.10, written by Peter Selinger 2001-2011
</metadata>
<g transform="translate(0.000000,150.000000) scale(0.100000,-0.100000)"
fill="#ffffff" stroke="none">
<path d="M552 1330 c-40 -54 -42 -49 72 -180 12 -14 41 -51 65 -82 24 -32 47
-58 51 -58 4 0 27 26 51 58 23 31 70 88 103 126 65 74 69 91 34 135 -19 25
-20 25 -188 26 l-169 1 -19 -26z m256 -97 c2 -16 -6 -28 -30 -43 -18 -11 -39
-20 -46 -20 -16 0 -62 45 -62 60 0 17 41 29 90 27 38 -2 45 -5 48 -24z"/>
<path d="M5 1090 c-13 -20 137 -113 242 -150 45 -16 71 -18 125 -13 63 5 68 4
68 -13 0 -11 -29 -49 -65 -84 -36 -35 -65 -72 -65 -81 0 -16 38 -39 65 -39 7
0 39 -13 71 -29 65 -32 84 -31 84 7 0 26 20 100 51 190 11 29 19 60 19 70 0 9
-28 45 -63 79 l-63 62 -232 4 c-128 2 -235 1 -237 -3z"/>
<path d="M946 1028 l-69 -67 17 -58 c9 -32 23 -80 32 -108 8 -27 17 -69 21
-93 3 -23 9 -45 13 -47 5 -3 31 6 59 21 28 14 74 32 101 40 35 10 50 20 50 32
0 9 -29 46 -65 82 -35 36 -64 74 -65 84 0 17 6 18 68 13 92 -9 177 20 301 102
29 20 63 42 75 48 20 12 20 13 1 15 -11 1 -121 2 -245 2 l-225 1 -69 -67z"/>
<path d="M685 882 c-3 -8 -5 -30 -5 -50 0 -20 -6 -66 -14 -102 -8 -36 -21 -99
-30 -140 -40 -203 -47 -237 -57 -265 -6 -16 -13 -37 -16 -46 -3 -11 21 -36 81
-83 48 -36 91 -66 96 -66 14 0 180 130 180 140 0 5 -6 24 -14 42 -8 18 -19 60
-26 93 -26 135 -42 214 -56 280 -8 39 -17 93 -20 120 -10 93 -8 90 -63 90 -33
0 -53 -5 -56 -13z m75 -303 c6 -23 15 -66 20 -95 5 -29 13 -61 18 -71 5 -10
10 -41 11 -70 1 -45 -2 -54 -25 -72 -31 -24 -62 -27 -88 -8 -23 17 -27 86 -9
152 8 28 18 79 24 115 5 36 11 71 14 78 9 24 24 11 35 -29z"/>
</g>
</svg>
