<svg xmlns="http://www.w3.org/2000/svg"  viewBox="0 0 100 100"><path d="M 22 17 A 1.0001 1.0001 0 0 0 21.199219 18.599609 L 27 26.333984 L 27 30.058594 C 21.427327 35.89187 18 43.799976 18 52.5 C 18 61.162899 21.397113 69.043137 26.927734 74.869141 L 22.125 83.513672 A 1.0001 1.0001 0 0 0 23 85 L 72 85 A 1.0001 1.0001 0 0 0 72.832031 84.554688 L 80.832031 72.554688 A 1.0001 1.0001 0 0 0 80 71 L 77.216797 71 C 80.859872 65.747906 83 59.371094 83 52.5 C 83 34.562562 68.437438 20 50.5 20 C 48.624754 20 46.789437 20.167757 45 20.472656 L 45 18 A 1.0001 1.0001 0 0 0 44 17 L 22 17 z M 24 19 L 43 19 L 43 72 A 1.0001 1.0001 0 0 0 44 73 L 78.130859 73 L 71.464844 83 L 24.701172 83 L 28.875 75.486328 A 1.0001 1.0001 0 0 0 29 75 L 29 26 A 1.0001 1.0001 0 0 0 28.800781 25.400391 L 24 19 z M 29.5 21 A 0.50005 0.50005 0 0 0 29.083984 21.777344 L 31 24.652344 L 31 33.5 A 0.50005 0.50005 0 1 0 32 33.5 L 32 24.5 A 0.50005 0.50005 0 0 0 31.916016 24.222656 L 30.433594 22 L 40 22 L 40 75.5 A 0.50005 0.50005 0 0 0 40.5 76 L 46.5 76 A 0.50005 0.50005 0 1 0 46.5 75 L 41 75 L 41 21.5 A 0.50005 0.50005 0 0 0 40.5 21 L 29.5 21 z M 50.5 22 C 67.356562 22 81 35.643438 81 52.5 C 81 59.464043 78.664097 65.866305 74.740234 71 L 70.835938 71 C 75.281739 66.114362 78 59.6214 78 52.5 C 78 37.323597 65.676403 25 50.5 25 C 48.616453 25 46.778882 25.198894 45 25.560547 L 45 22.5 C 46.784522 22.175633 48.620582 22 50.5 22 z M 50.5 27 C 64.595597 27 76 38.404403 76 52.5 C 76 59.790548 72.945063 66.351911 68.046875 71 L 45 71 L 45 27.605469 C 46.771334 27.215472 48.608759 27 50.5 27 z M 27 33.068359 L 27 38.212891 A 1.0001 1.0001 0 0 0 26.96875 38.261719 C 26.86952 38.424665 26.772808 38.586881 26.677734 38.751953 C 24.338659 42.79708 23 47.495799 23 52.5 C 23 57.703333 24.448432 62.577531 26.962891 66.728516 A 1.0001 1.0001 0 0 0 27 66.785156 L 27 71.929688 C 22.630966 66.652813 20 59.890923 20 52.5 C 20 45.108034 22.629996 38.345296 27 33.068359 z M 48.806641 33.328125 A 0.50005 0.50005 0 0 0 48.712891 34.320312 C 48.712891 34.320312 50.080739 34.590825 52.007812 35.134766 A 0.50021575 0.50021575 0 1 0 52.279297 34.171875 C 50.316371 33.617815 48.90625 33.339844 48.90625 33.339844 A 0.50005 0.50005 0 0 0 48.806641 33.328125 z M 54.505859 34.892578 A 0.50005 0.50005 0 0 0 54.382812 35.867188 C 56.566791 36.604081 58.973478 37.606313 60.783203 38.837891 A 0.50005 0.50005 0 1 0 61.345703 38.011719 C 59.405428 36.691297 56.933194 35.673027 54.701172 34.919922 A 0.50005 0.50005 0 0 0 54.505859 34.892578 z M 31.492188 35.992188 A 0.50005 0.50005 0 0 0 31 36.5 L 31 44.5 A 0.50005 0.50005 0 1 0 32 44.5 L 32 36.5 A 0.50005 0.50005 0 0 0 31.492188 35.992188 z M 48.839844 42.007812 A 0.50005 0.50005 0 0 0 48.662109 42.964844 C 48.662109 42.964844 49.971869 43.573337 51.726562 44.548828 A 0.50053494 0.50053494 0 1 0 52.212891 43.673828 C 50.427586 42.68132 49.082031 42.056641 49.082031 42.056641 A 0.50005 0.50005 0 0 0 48.839844 42.007812 z M 27 42.589844 L 27 62.396484 C 25.716549 59.353499 25 56.013674 25 52.5 C 25 48.98213 25.713795 45.635674 27 42.589844 z M 62.828125 44.476562 A 0.50005 0.50005 0 0 0 62.335938 44.984375 C 62.335938 47.828352 62.028596 49.867274 61.621094 51.748047 C 59.625135 49.238495 56.651267 46.378407 54.714844 45.154297 A 0.50040122 0.50040122 0 1 0 54.179688 46 C 56.095914 47.211342 59.708791 50.619849 61.519531 53.126953 A 0.50005 0.50005 0 0 0 62.410156 52.953125 C 62.943783 50.772039 63.335938 48.373473 63.335938 44.984375 A 0.50005 0.50005 0 0 0 62.828125 44.476562 z M 31.492188 47.992188 A 0.50005 0.50005 0 0 0 31 48.5 L 31 76.164062 L 29.048828 80.285156 A 0.50005 0.50005 0 0 0 29.5 81 L 68.853516 81 A 0.50005 0.50005 0 0 0 69.275391 80.767578 L 72.457031 75.767578 A 0.50005 0.50005 0 0 0 72.035156 75 L 62.5 75 A 0.50005 0.50005 0 1 0 62.5 76 L 71.125 76 L 68.580078 80 L 30.289062 80 L 31.951172 76.490234 A 0.50005 0.50005 0 0 0 32 76.277344 L 32 48.5 A 0.50005 0.50005 0 0 0 31.492188 47.992188 z M 47.490234 55.998047 A 0.50005 0.50005 0 0 0 47.363281 56.980469 C 47.363281 56.980469 49.055676 57.46446 51.382812 58.564453 A 0.50017754 0.50017754 0 1 0 51.810547 57.660156 C 49.415684 56.52815 47.636719 56.019531 47.636719 56.019531 A 0.50005 0.50005 0 0 0 47.490234 55.998047 z M 54.634766 59.253906 A 0.50005 0.50005 0 0 0 54.400391 60.183594 C 55.177525 60.656072 56.97791 61.896648 58.642578 63.693359 C 60.307246 65.490071 61.831376 67.837003 62.164062 70.529297 A 0.50005 0.50005 0 0 0 63.078125 70.75 A 0.50005 0.50005 0 0 0 63.224609 70.582031 C 64.898169 67.558167 65.913416 64.075458 66.46875 61.246094 A 0.50005 0.50005 0 1 0 65.488281 61.052734 C 65.002119 63.529678 64.075967 66.496179 62.746094 69.175781 C 62.126295 66.758564 60.864469 64.621287 59.375 63.013672 C 57.623168 61.122883 55.772788 59.8486 54.919922 59.330078 A 0.50005 0.50005 0 0 0 54.634766 59.253906 z M 49.5 75 A 0.50005 0.50005 0 1 0 49.5 76 L 57.5 76 A 0.50005 0.50005 0 1 0 57.5 75 L 49.5 75 z"/></svg>
